<!DOCTYPE svg PUBLIC "-//W3C//DTD SVG 1.1//EN" "http://www.w3.org/Graphics/SVG/1.1/DTD/svg11.dtd">
<!-- Uploaded to: SVG Repo, www.svgrepo.com, Transformed by: SVG Repo Mixer Tools -->
<svg fill="#000000" height="140px" width="140px" version="1.1" id="Layer_1" xmlns="http://www.w3.org/2000/svg" xmlns:xlink="http://www.w3.org/1999/xlink" viewBox="-307.2 -307.2 1126.40 1126.40" xml:space="preserve">
<g id="SVGRepo_bgCarrier" stroke-width="0"/>
<g id="SVGRepo_tracerCarrier" stroke-linecap="round" stroke-linejoin="round"/>
<g id="SVGRepo_iconCarrier"> <g transform="translate(0 -1)"> <g> <path d="M460.8,372.2c-3.078,0-6.12,0.284-9.108,0.838c-3.292-21.832-20.378-39.138-42.092-42.784v-69.311 c57.277-4.358,102.4-52.218,102.4-110.61C512,89.07,462.33,39.4,401.067,39.4S290.133,89.07,290.133,150.333 c0,58.392,45.123,106.252,102.4,110.61v69.311c-6.98,1.177-13.582,3.777-19.437,7.61c-10.985-15.639-29.014-25.398-48.83-25.398 c-32.992,0-59.733,26.741-59.733,59.733c-28.273,0-51.2,22.927-51.2,51.2c0,13.115,4.939,25.074,13.05,34.133h-64.25v-25.602 c0-0.003,0-0.005,0-0.008c-0.004-4.123-2.672-8.231-7.988-8.498c-0.181-0.011-0.361-0.028-0.545-0.028h-0.024 c-13.521-0.036-24.981-29.809-25.548-65.499c20.165-9.592,34.106-30.147,34.106-53.966c0-4.713-3.821-8.533-8.533-8.533h-42.667 v-51.2c0-18.873,15.26-34.133,34.133-34.133c18.873,0,34.133,15.26,34.133,34.133c0,4.713,3.82,8.533,8.533,8.533 s8.533-3.82,8.533-8.533c0-28.299-22.901-51.2-51.2-51.2c-17.823,0-33.499,9.089-42.667,22.884 C93.232,202.089,77.556,193,59.733,193c-28.299,0-51.2,22.901-51.2,51.2c0,4.713,3.82,8.533,8.533,8.533s8.533-3.82,8.533-8.533 c0-18.873,15.26-34.133,34.133-34.133s34.133,15.26,34.133,34.133v51.2H51.2c-4.713,0-8.533,3.82-8.533,8.533 c0,23.819,13.941,44.373,34.106,53.966c-0.567,35.69-12.028,65.463-25.548,65.499H51.2c-0.184,0-0.364,0.016-0.545,0.028 c-5.316,0.267-7.984,4.375-7.988,8.498c0,0.003,0,0.005,0,0.008v25.602H8.533c-4.713,0-8.533,3.82-8.533,8.533 s3.82,8.533,8.533,8.533h256H460.8h42.667c4.713,0,8.533-3.82,8.533-8.533s-3.82-8.533-8.533-8.533h-4.517 c8.111-9.059,13.05-21.019,13.05-34.133C512,395.127,489.073,372.2,460.8,372.2z M59.733,440.467h85.333v17.065H59.733V440.467z M60.587,312.467h83.627c-3.953,19.477-21.169,34.133-41.813,34.133C81.756,346.6,64.539,331.943,60.587,312.467z M93.693,363.667 h17.414c0.987,23.992,6.168,45.594,15.284,59.732H78.408C87.525,409.261,92.705,387.658,93.693,363.667z M307.2,150.333 c0-51.838,42.029-93.867,93.867-93.867c51.838,0,93.867,42.029,93.867,93.867c0,48.96-37.495,89.164-85.333,93.476v-55.808 l23.101-23.101c3.332-3.333,3.332-8.736,0-12.068c-3.333-3.332-8.735-3.332-12.068,0l-19.566,19.566l-19.566-19.566 c-3.332-3.332-8.735-3.332-12.068,0c-3.332,3.332-3.332,8.735,0,12.068l23.101,23.101v55.808 C344.695,239.497,307.2,199.294,307.2,150.333z M379.001,457.533l28.099-28.099c3.332-3.333,3.332-8.735,0-12.068 c-3.332-3.332-8.735-3.332-12.068,0l-28.099,28.099v-39.132c0-4.713-3.82-8.533-8.533-8.533s-8.533,3.82-8.533,8.533v39.132 l-28.099-28.099c-3.332-3.332-8.735-3.332-12.068,0c-3.332,3.333-3.332,8.735,0,12.068l28.099,28.099h-73.265 c-18.848,0-34.133-15.286-34.133-34.133c0-18.848,15.286-34.133,34.133-34.133c2.394,0,4.874,0.31,7.589,0.925 c5.997,1.357,11.417-3.882,10.265-9.922c-0.521-2.733-0.788-5.415-0.788-8.069c0-23.567,19.1-42.667,42.667-42.667 c16.783,0,31.771,9.805,38.709,24.819c2.499,5.408,9.63,6.656,13.817,2.418c6.396-6.474,15.033-10.17,24.274-10.17 c18.848,0,34.133,15.286,34.133,34.133c0,0.163-0.027,0.435-0.123,1.147c-0.128,0.94-0.178,1.35-0.229,1.931 c-0.563,6.492,6.065,11.194,12.006,8.517c4.468-2.013,9.151-3.061,13.946-3.061c18.848,0,34.133,15.286,34.133,34.133 c0,18.848-15.286,34.133-34.133,34.133H379.001z"/> </g> </g> </g>
</svg>