<!DOCTYPE svg PUBLIC "-//W3C//DTD SVG 1.1//EN" "http://www.w3.org/Graphics/SVG/1.1/DTD/svg11.dtd">
<!-- Uploaded to: SVG Repo, www.svgrepo.com, Transformed by: SVG Repo Mixer Tools -->
<svg width="140px" height="140px" viewBox="-14.4 -14.4 52.80 52.80" fill="none" xmlns="http://www.w3.org/2000/svg">
<g id="SVGRepo_bgCarrier" stroke-width="0"/>
<g id="SVGRepo_tracerCarrier" stroke-linecap="round" stroke-linejoin="round"/>
<g id="SVGRepo_iconCarrier"> <path d="M16.719 19.7519L16.0785 14.6279C15.8908 13.1266 14.6146 12 13.1017 12H12H10.8983C9.38538 12 8.10917 13.1266 7.92151 14.6279L7.28101 19.7519C7.1318 20.9456 8.06257 22 9.26556 22H12H14.7344C15.9374 22 16.8682 20.9456 16.719 19.7519Z" stroke="#000000" stroke-width="0.72" stroke-linecap="round" stroke-linejoin="round"/> <circle cx="12" cy="5" r="3" stroke="#000000" stroke-width="0.72"/> <circle cx="4" cy="9" r="2" stroke="#000000" stroke-width="0.72"/> <circle cx="20" cy="9" r="2" stroke="#000000" stroke-width="0.72"/> <path d="M4 14H3.69425C2.71658 14 1.8822 14.7068 1.72147 15.6712L1.38813 17.6712C1.18496 18.8903 2.12504 20 3.36092 20H7" stroke="#000000" stroke-width="0.72" stroke-linecap="round" stroke-linejoin="round"/> <path d="M20 14H20.3057C21.2834 14 22.1178 14.7068 22.2785 15.6712L22.6119 17.6712C22.815 18.8903 21.8751 20 20.6392 20C19.4775 20 18.0952 20 17 20" stroke="#000000" stroke-width="0.72" stroke-linecap="round" stroke-linejoin="round"/> </g>
</svg>